HIERARCHY
ROOT Hips
{
	OFFSET 0.00000 0.00000 0.00000
	CHANNELS 6 Xposition Yposition Zposition Zrotation Yrotation Xrotation 
	JOINT LHipJoint
	{
		OFFSET 0 0 0
		CHANNELS 3 Zrotation Yrotation Xrotation
		JOINT LeftHip
		{
			OFFSET 1.36337 -1.57426 1.11036
			CHANNELS 3 Zrotation Yrotation Xrotation
			JOINT LeftKnee
			{
				OFFSET 2.38468 -6.55187 0.00000
				CHANNELS 3 Zrotation Yrotation Xrotation
				JOINT LeftAnkle
				{
					OFFSET 2.37166 -6.51609 0.00000
					CHANNELS 3 Zrotation Yrotation Xrotation
					JOINT LeftToe
					{
						OFFSET 0.29078 -0.79891 2.01393
						CHANNELS 3 Zrotation Yrotation Xrotation
						End Site
						{
							OFFSET 0.00000 -0.00000 1.07924
						}
					}
				}
			}
		}
	}
	JOINT RHipJoint
	{
		OFFSET 0 0 0
		CHANNELS 3 Zrotation Yrotation Xrotation
		JOINT RightHip
		{
			OFFSET -1.36349 -1.57426 1.11036
			CHANNELS 3 Zrotation Yrotation Xrotation
			JOINT RightKnee
			{
				OFFSET -2.29562 -6.30717 0.00000
				CHANNELS 3 Zrotation Yrotation Xrotation
				JOINT RightAnkle
				{
					OFFSET -2.40985 -6.62100 0.00000
					CHANNELS 3 Zrotation Yrotation Xrotation
					JOINT RightToe
					{
						OFFSET -0.23197 -0.63733 1.92232
						CHANNELS 3 Zrotation Yrotation Xrotation
						End Site
						{
							OFFSET -0.00000 -0.00000 1.01562
						}
					}
				}
			}
		}
	}
	JOINT lowerback
	{
		OFFSET 0 0 0
		CHANNELS 3 Zrotation Yrotation Xrotation
		JOINT Chest
		{
			OFFSET -0.08565 2.03602 -0.24562
			CHANNELS 3 Zrotation Yrotation Xrotation
			JOINT Chest2
			{
				OFFSET -0.00036 2.05693 0.00216
				CHANNELS 3 Zrotation Yrotation Xrotation
				JOINT lowerneck
				{
					OFFSET 0 0 0
					CHANNELS 3 Zrotation Yrotation Xrotation
					JOINT Neck
					{
						OFFSET -0.03664 1.69515 0.31789
						CHANNELS 3 Zrotation Yrotation Xrotation
						JOINT Head
						{
							OFFSET 0.00932 1.70181 -0.46013
							CHANNELS 3 Zrotation Yrotation Xrotation
							End Site
							{
								OFFSET 0.01243 1.77620 -0.19377
							}
						}
					}
				}
				JOINT LeftCollar
				{
					OFFSET 0 0 0
					CHANNELS 3 Zrotation Yrotation Xrotation
					JOINT LeftShoulder
					{
						OFFSET 3.74344 0.81315 -0.36647
CHANNELS 3 Zrotation Xrotation Yrotation
						JOINT LeftElbow
						{
OFFSET 0 -4.971850 -0.000000
CHANNELS 3 Zrotation Xrotation Yrotation
							JOINT LeftWrist
							{
OFFSET 0 -3.358110 0.000000
CHANNELS 3 Zrotation Xrotation Yrotation
								JOINT lhand
								{
									OFFSET 0 0 0
CHANNELS 3 Zrotation Xrotation Yrotation
									JOINT LFingers
									{
OFFSET 0 -0.622780 0.000000
CHANNELS 3 Zrotation Xrotation Yrotation
										End Site
										{
OFFSET 0 -0.502100 0.000000
										}
									}
								}
								JOINT LThumb
								{
OFFSET 0 0.000000 0.000000
CHANNELS 3 Zrotation Xrotation Yrotation
									End Site
									{
OFFSET 0 -0.509760 0.509760
									}
								}
							}
						}
					}
				}
				JOINT RightCollar
				{
					OFFSET 0 0 0
					CHANNELS 3 Zrotation Yrotation Xrotation
					JOINT RightShoulder
					{
						OFFSET -3.75385 0.50666 -0.06525
CHANNELS 3 Zrotation Xrotation Yrotation
						JOINT RightElbow
						{
OFFSET 0 -4.964930 -0.000000
CHANNELS 3 Zrotation Xrotation Yrotation
							JOINT RightWrist
							{
OFFSET 0 -3.349290 0.000000
CHANNELS 3 Zrotation Xrotation Yrotation
								JOINT rhand
								{
									OFFSET 0 0 0
CHANNELS 3 Zrotation Xrotation Yrotation
									JOINT RFingers
									{
OFFSET 0 -0.638040 0.000000
CHANNELS 3 Zrotation Xrotation Yrotation
										End Site
										{
OFFSET 0 -0.514410 0.000000
										}
									}
								}
								JOINT RThumb
								{
OFFSET 0 0.000000 0.000000
CHANNELS 3 Zrotation Xrotation Yrotation
									End Site
									{
OFFSET 0 -0.522260 0.522260
									}
								}
							}
						}
					}
				}
			}
		}
	}
}
MOTION
Frames: 11
Frame Time: 0.008333333333333333
-11.294700 2.301000 -0.125600 -93.956300 0.907100 157.155000 0.000000 0.000000 0.000000 -21.096700 -18.785200 -17.361400 3.040100 10.759600 31.473500 0.447300 9.592900 12.780000 0.043000 1.338700 3.681300 0.000000 0.000000 0.000000 18.664600 -20.919200 -8.652200 -11.888500 -18.343100 65.634800 -0.893700 -5.646200 16.862400 -0.674600 -5.252100 14.629000 -0.073800 1.291200 23.784400 2.743000 0.137500 10.431600 2.983200 -0.731800 -1.794200 -6.482900 -0.005600 -25.607000 -16.253800 10.205700 25.784300 -3.346200 1.903700 14.064800 0.000000 0.000000 0.000000 159.230600 -73.325000 9.137700 18.490500 -28.780700 4.783100 19.139700 -48.673000 -17.921500 0.000000 0.000000 0.000000 -7.125000 0.000000 0.000000 -8.678200 48.682700 0.793800 0.000000 0.000000 0.000000 8.518800 -17.531400 87.152600 -93.925400 -59.941700 -63.398800 -13.804500 -6.537400 6.537700 0.000000 0.000000 0.000000 7.125000 0.000000 -0.000000 10.895900 36.519300 2.306200
-11.268955 2.285763 -0.062742 -93.942656 0.921180 156.620985 0.000000 0.000000 0.000000 -21.232684 -18.584999 -16.863971 2.966954 10.641325 31.079529 0.471540 9.773692 13.100446 0.049078 1.429765 3.932078 0.000000 0.000000 0.000000 18.363841 -20.787805 -8.528832 -12.246170 -18.491688 66.765857 -0.816338 -6.604067 16.123916 -0.650791 -5.160029 14.365587 0.148438 1.318805 25.082801 2.706405 0.166614 10.431595 2.831637 -0.736766 -2.420301 -6.310488 0.066491 -25.616228 -16.200359 10.224313 25.851130 -3.352052 1.929786 14.095330 0.000000 0.000000 0.000000 157.986868 -73.971189 10.567407 17.887264 -28.011752 4.496594 17.793519 -46.556567 -17.590456 0.000000 0.000000 0.000000 -7.125000 0.000000 0.000000 -9.857658 48.147014 0.770703 0.000000 0.000000 0.000000 7.904685 -17.691949 86.931890 -95.016996 -59.904224 -64.343485 -13.182113 -5.763517 7.123556 0.000000 0.000000 0.000000 7.125000 0.000000 0.000000 11.515945 37.071553 2.281537
-11.243543 2.269932 -0.013739 -93.949088 1.002201 156.089514 0.000000 0.000000 0.000000 -21.364287 -18.345545 -16.413945 2.923022 10.569338 30.840812 0.485306 9.944159 13.300027 0.051611 1.466453 4.033345 0.000000 0.000000 0.000000 18.015331 -20.603841 -8.508084 -12.856653 -18.728965 68.678919 -0.673933 -7.280536 14.736670 -0.635657 -5.101037 14.196880 0.372964 1.328017 26.251278 2.671304 0.177195 10.446740 2.682754 -0.751936 -2.959772 -6.322005 0.021539 -25.611956 -16.232221 10.139740 25.758731 -3.376393 1.893169 14.050389 0.000000 0.000000 0.000000 156.170868 -74.709214 11.800643 17.288197 -27.235691 4.218627 16.665382 -43.828838 -17.326741 0.000000 0.000000 0.000000 -7.125000 0.000000 0.000000 -10.839483 47.718832 0.734808 0.000000 0.000000 0.000000 7.301390 -17.903500 86.799553 -95.950094 -59.865602 -65.150625 -12.562944 -4.951608 7.963254 0.000000 0.000000 0.000000 7.125000 0.000000 0.000000 12.189605 37.873049 2.176881
-10.961060 2.303302 0.540152 -92.739641 2.158162 155.705020 0.000000 0.000000 0.000000 -18.542791 -18.969470 -18.608721 2.943348 10.602627 30.951218 0.667759 11.007478 15.422037 0.050508 1.450087 3.988284 0.000000 0.000000 0.000000 21.209168 -18.326756 -12.288844 -14.033143 -19.121199 72.303427 -0.634399 -7.052391 14.292418 -0.510714 -4.574677 12.700451 1.257128 1.783931 33.886861 3.188898 1.035043 8.660343 2.438173 -0.431701 -7.710440 -6.180485 -0.046739 -25.725993 -16.144661 9.814198 25.480843 -3.418745 1.781176 13.920076 0.000000 0.000000 0.000000 156.350394 -74.566868 14.042475 16.951719 -26.793782 4.065701 15.848187 -41.837473 -17.180741 0.000000 0.000000 0.000000 -7.125000 0.000000 0.000000 -11.558207 47.458334 0.709688 0.000000 0.000000 0.000000 7.359666 -19.586444 86.973379 -96.574896 -59.836014 -65.690904 -10.965273 -3.891480 10.184551 0.000000 0.000000 0.000000 7.125000 0.000000 0.000000 14.020357 39.958321 1.781748
-10.842489 2.309755 0.723678 -91.763932 2.573123 155.841117 0.000000 0.000000 0.000000 -16.888980 -19.502521 -19.897084 3.040198 10.759627 31.473674 0.718911 11.301863 15.977880 0.052400 1.476730 4.061591 0.000000 0.000000 0.000000 22.874854 -17.545769 -14.144255 -14.807442 -19.340161 74.655556 -0.542242 -7.016625 13.268133 -0.331821 -3.685869 10.196514 2.021705 1.776644 35.998197 3.533815 1.348369 8.049839 2.321313 -0.329694 -9.066768 -6.163223 -0.109380 -25.799668 -16.218369 9.708327 25.358571 -3.468541 1.729789 13.882334 0.000000 0.000000 0.000000 157.142210 -74.339178 14.470064 16.829703 -26.632647 4.010733 15.983220 -42.204540 -16.952480 0.000000 0.000000 0.000000 -7.125000 0.000000 0.000000 -11.362895 47.246713 0.637985 0.000000 0.000000 0.000000 7.618388 -20.908403 87.714338 -96.578706 -59.835796 -65.694218 -11.188985 -4.157968 11.482019 0.000000 0.000000 0.000000 7.125000 0.000000 0.000000 14.142928 41.255577 1.336044
-10.818530 2.306485 0.727176 -91.067311 2.646320 156.164088 0.000000 0.000000 0.000000 -15.982760 -19.875542 -20.690551 3.183009 10.985372 32.230710 0.688092 11.247999 15.681751 0.054001 1.499107 4.123311 0.000000 0.000000 0.000000 23.709502 -17.524967 -14.734333 -15.058341 -19.404145 75.412371 -0.477411 -7.549543 12.611808 -0.165083 -2.606481 7.185645 2.604204 1.555798 35.780471 3.736513 1.319521 7.969374 2.241262 -0.345577 -9.060063 -6.033949 -0.018050 -25.937671 -16.268538 9.837715 25.390659 -3.487038 1.783624 13.943690 0.000000 0.000000 0.000000 157.965088 -73.738101 12.933758 17.071276 -26.951628 4.119641 16.646024 -44.479390 -16.710530 0.000000 0.000000 0.000000 -7.125000 0.000000 0.000000 -10.674905 47.091675 0.557597 0.000000 0.000000 0.000000 7.598477 -20.870820 87.815855 -96.752736 -59.826993 -65.844646 -11.152744 -4.125848 11.359218 0.000000 0.000000 0.000000 7.125000 0.000000 0.000000 14.143221 41.131348 1.380439
-10.808360 2.309735 0.729363 -90.562258 2.619203 156.502175 0.000000 0.000000 0.000000 -15.308283 -20.277918 -21.431122 3.322268 11.199032 32.954478 0.659149 11.198927 15.400296 0.057778 1.550908 4.266153 0.000000 0.000000 0.000000 24.352004 -17.674817 -15.261568 -15.098016 -19.413845 75.531747 -0.444755 -8.431596 12.429391 -0.065342 -1.619064 4.454716 3.048150 1.442026 35.291934 3.860401 1.332678 8.043333 2.116636 -0.341006 -8.851710 -5.960562 -0.015491 -25.939563 -16.204155 9.753830 25.346807 -3.487719 1.763785 13.912779 0.000000 0.000000 0.000000 161.669466 -72.921060 11.731173 17.367351 -27.339268 4.254824 18.173961 -49.048395 -16.272989 0.000000 0.000000 0.000000 -7.125000 0.000000 0.000000 -9.130558 46.850834 0.421534 0.000000 0.000000 0.000000 7.628256 -21.023052 87.718655 -96.619739 -59.833757 -65.729620 -11.310431 -4.307430 11.040123 0.000000 0.000000 0.000000 7.125000 0.000000 0.000000 13.928229 40.830887 1.463862
-10.799428 2.305355 0.725433 -90.175450 2.594405 156.795815 0.000000 0.000000 0.000000 -14.811915 -20.639962 -22.003154 3.430251 11.360947 33.507137 0.639474 11.128813 15.195749 0.061230 1.596871 4.392837 0.000000 0.000000 0.000000 24.735746 -17.905106 -15.736291 -15.145134 -19.425243 75.673490 -0.407485 -9.306954 12.242645 -0.013261 -0.735936 2.022561 3.389193 1.386489 34.829771 4.020835 1.383358 8.096008 2.072272 -0.318535 -8.671120 -6.089566 -0.120332 -25.853299 -16.159454 9.602744 25.280285 -3.474600 1.699747 13.846291 0.000000 0.000000 0.000000 165.098762 -72.115719 10.496722 17.801991 -27.902805 4.456215 19.737689 -53.469368 -15.947987 0.000000 0.000000 0.000000 -7.125000 0.000000 0.000000 -7.588237 46.725755 0.325038 0.000000 0.000000 0.000000 7.471295 -21.039678 87.446400 -96.757383 -59.826717 -65.848624 -11.258470 -4.229391 10.854349 0.000000 0.000000 0.000000 7.125000 0.000000 0.000000 13.927340 40.643137 1.529950
-10.790612 2.301847 0.720793 -89.921533 2.676166 156.984571 0.000000 0.000000 0.000000 -14.422029 -20.875854 -22.405743 3.521004 11.494018 33.964855 0.617084 11.098486 14.974133 0.062818 1.616987 4.448269 0.000000 0.000000 0.000000 25.001989 -17.965620 -16.003488 -15.175193 -19.432488 75.763719 -0.356336 -10.166224 11.950372 -0.002989 0.134262 -0.368942 3.618575 1.297859 34.677509 4.080244 1.373480 8.020926 2.016569 -0.318523 -8.689352 -6.054289 -0.081274 -25.808963 -16.170970 9.638897 25.253157 -3.475786 1.722892 13.829946 0.000000 0.000000 0.000000 164.126539 -72.380242 10.553821 17.694353 -27.763982 4.405952 19.249728 -52.449543 -16.059217 0.000000 0.000000 0.000000 -7.125000 0.000000 0.000000 -8.071639 46.775314 0.356130 0.000000 0.000000 0.000000 7.505898 -20.915583 87.498394 -96.894752 -59.819634 -65.967365 -11.137452 -4.240685 10.907691 0.000000 0.000000 0.000000 7.125000 0.000000 0.000000 14.044210 40.685272 1.528438
-10.793945 2.301055 0.702722 -89.597250 2.746238 157.225190 0.000000 0.000000 0.000000 -13.963270 -21.026463 -22.770990 3.589346 11.592851 34.306441 0.586499 11.048421 14.665126 0.063245 1.622621 4.463827 0.000000 0.000000 0.000000 25.348154 -18.067612 -16.178674 -15.169512 -19.431114 75.746736 -0.289666 -10.993350 11.516786 -0.026429 1.023922 -2.814890 3.833665 1.205057 34.363435 4.230751 1.361287 7.946074 2.063965 -0.316618 -8.650908 -6.119699 -0.076151 -25.837259 -16.207603 9.727554 25.318119 -3.465277 1.746421 13.873875 0.000000 0.000000 0.000000 163.394706 -72.533957 10.049590 17.687453 -27.755084 4.402721 19.201023 -52.294808 -16.097126 0.000000 0.000000 0.000000 -7.125000 0.000000 0.000000 -8.126583 46.808046 0.364977 0.000000 0.000000 0.000000 7.381673 -20.791214 87.612569 -96.807471 -59.824149 -65.891984 -11.313384 -4.231821 10.815792 0.000000 0.000000 0.000000 7.125000 0.000000 0.000000 13.870744 40.609913 1.535033
-10.792536 2.302965 0.694170 -89.655761 2.929047 157.357279 0.000000 0.000000 0.000000 -13.851778 -20.976633 -22.991759 3.622577 11.640517 34.471885 0.569614 11.215033 14.554101 0.068770 1.691505 4.653856 0.000000 0.000000 0.000000 25.232172 -18.202420 -16.340955 -15.195229 -19.437222 75.823984 -0.289286 -10.777402 11.415996 -0.155580 2.494355 -6.876266 3.731446 1.295694 34.230847 4.270265 1.442359 7.928475 2.129095 -0.276260 -8.628756 -6.366882 -0.080009 -25.921988 -15.984272 9.776076 25.404367 -3.327946 1.761315 13.904048 0.000000 0.000000 0.000000 163.121924 -72.476238 9.525677 17.749667 -27.835414 4.431720 19.413809 -52.604807 -16.005427 0.000000 0.000000 0.000000 -7.125000 0.000000 0.000000 -7.904943 46.741705 0.341886 0.000000 0.000000 0.000000 7.234479 -20.780168 87.659004 -96.788009 -59.825157 -65.875135 -11.603307 -4.291350 10.842906 0.000000 0.000000 0.000000 7.125000 0.000000 0.000000 13.628414 40.661841 1.489206
